<?xml version="1.0" encoding="UTF-8" standalone="no"?>
<svg
   xmlns:dc="http://purl.org/dc/elements/1.1/"
   xmlns:cc="http://creativecommons.org/ns#"
   xmlns:rdf="http://www.w3.org/1999/02/22-rdf-syntax-ns#"
   xmlns:svg="http://www.w3.org/2000/svg"
   xmlns="http://www.w3.org/2000/svg"
   xmlns:sodipodi="http://sodipodi.sourceforge.net/DTD/sodipodi-0.dtd"
   xmlns:inkscape="http://www.inkscape.org/namespaces/inkscape"
   width="11in"
   height="8.5in"
   viewBox="0 0 990 764.99999"
   id="svg2"
   version="1.1"
   inkscape:version="1.0.2-2 (e86c870879, 2021-01-15)"
   sodipodi:docname="03_01_DrawingPen (1).svg">
  <metadata
     id="metadata3">
    <rdf:RDF>
      <rdf:Description
         rdf:about="" />
      <cc:Work
         rdf:about="">
        <dc:format>image/svg+xml</dc:format>
        <dc:type
           rdf:resource="http://purl.org/dc/dcmitype/StillImage" />
        <dc:title />
      </cc:Work>
    </rdf:RDF>
  </metadata>
  <defs
     id="defs4" />
  <sodipodi:namedview
     id="base"
     pagecolor="#ffffff"
     bordercolor="#666666"
     borderopacity="1.0"
     inkscape:pageopacity="0.0"
     inkscape:pageshadow="2"
     inkscape:zoom="1"
     inkscape:cx="730.84972"
     inkscape:cy="448.51121"
     inkscape:document-units="px"
     inkscape:current-layer="layer1"
     showgrid="false"
     inkscape:window-width="1920"
     inkscape:window-height="974"
     inkscape:window-x="-11"
     inkscape:window-y="-11"
     inkscape:window-maximized="1"
     units="in"
     inkscape:snap-nodes="false"
     inkscape:document-rotation="0" />
  <metadata
     id="metadata7">
    <rdf:RDF>
      <cc:Work
         rdf:about="">
        <dc:format>image/svg+xml</dc:format>
        <dc:type
           rdf:resource="http://purl.org/dc/dcmitype/StillImage" />
        <dc:title />
      </cc:Work>
    </rdf:RDF>
  </metadata>
  <g
     inkscape:label="Source"
     inkscape:groupmode="layer"
     id="layer1"
     transform="translate(0,-287.36221)"
     style="display:inline;opacity:0.3">
    <path
       style="display:inline;fill:#ffd52d;fill-opacity:1;fill-rule:evenodd;stroke:none"
       d="M 249.04616,336.17412 106.16989,444.68854 h 36.38373 v 160.86771 h 56.05966 V 502.16884 h 100.8683 v 103.38741 h 56.05964 V 444.68854 h 36.3812 z"
       id="path298"
       inkscape:connector-curvature="0" />
    <path
       inkscape:connector-curvature="0"
       id="path266"
       style="display:inline;fill:#3fe8ed;fill-opacity:1;fill-rule:evenodd;stroke:none"
       d="m 743.86885,446.79393 c 64.67465,-17.13494 97.16626,31.64303 100.2332,67.48379 24.61223,-0.0312 43.78859,15.29529 44.74871,41.12944 0,22.80034 -18.47863,41.27316 -41.27965,41.27316 l -291.14399,0 c -38.26218,0 -66.02551,-25.22366 -66.92846,-66.9313 -0.90295,-41.70764 51.1977,-80.10067 94.4021,-61.04365 21.12967,-93.11269 128.49585,-91.44611 159.96809,-21.91144 z"
       sodipodi:nodetypes="cccsszcc" />
    <path
       sodipodi:nodetypes="ccssccccccccccc"
       inkscape:connector-curvature="0"
       id="path5533"
       d="m 801.83216,845.96701 c 0.69492,-32.90897 -17.91304,-62.12378 -39.31774,-85.57258 -16.45363,-20.94247 -42.22116,-49.20938 -46.24705,-76.59376 -1.44507,-9.82947 -2.77575,-16.52527 -7.49046,-16.53793 -5.66264,-0.0146 -4.14766,11.96296 -4.09899,18.04186 l 0,258.54726 c -25.88198,-17.36888 -61.6872,-6.30392 -81.94603,14.79087 -14.30222,13.86848 -22.67441,39.74942 -7.88701,56.12897 17.60516,16.6031 45.49993,11.4021 65.00606,1.291 20.40887,-10.1948 35.84907,-31.84774 33.59277,-55.27669 l 0,-196.99883 c 31.88237,0.78487 55.33405,27.59256 69.41966,53.67491 15.3121,31.55171 4.79517,67.90252 -8.84999,98.00406 -2.86704,6.66451 -3.88055,22.5959 -0.91759,16.93608 13.82226,-27.00501 28.58088,-55.22195 28.73637,-86.43522 z"
       style="fill:#000000;fill-opacity:1;fill-rule:nonzero;stroke:none" />
    <path
       inkscape:connector-curvature="0"
       id="path292-8"
       d="M 287.11138,931.40489 C 371.53694,924.68425 448.7664,893.59972 512.77304,845.60437 356.45085,841.22246 323.77289,703.7386 206.63083,710.44639 c -28.75866,0 -57.02901,14.14802 -76.754,36.39165 15.31739,28.52735 92.7653,158.82798 221.0356,134.93953 -139.16723,33.62887 -226.61257,-60.0488 -246.77447,-84.84961 -1.61912,7.41454 -2.55719,15.29169 -2.55719,23.18169 0,111.52654 102.27443,117.78457 185.53061,111.29524 l 0,0"
       style="fill:#00ff00" />
    <path
       style="fill:none;stroke:#ff0000;stroke-width:0.9375px;stroke-linecap:butt;stroke-linejoin:miter;stroke-opacity:1"
       d="M 155.15027,611.51811 V 450.65264 H 118.77454 L 261.64075,342.14434 404.52893,450.65996 H 368.24795 V 611.60967 H 312.0094 V 507.94637 H 210.97193 v 103.33151 z"
       id="path985" />
    <path
       style="fill:none;stroke:#ff0000;stroke-width:0.9375px;stroke-linecap:butt;stroke-linejoin:miter;stroke-opacity:1"
       d="m 567.1733,598.67888 295.52085,0.16573 c 18.22365,-4.10261 35.93281,-14.82294 36.60271,-40.65377 -0.86726,-29.85817 -21.62393,-39.87735 -45.23437,-42.07864 -4.23094,-31.96068 -17.94614,-47.21286 -33.66211,-58.0957 -18.01142,-14.54498 -42.04446,-14.02519 -66.88477,-9.16992 -9.4321,-15.57026 -22.65068,-48.42523 -81.09375,-49.45312 -46.73635,2.96581 -68.53924,38.08011 -78.45503,71.09346 -55.41602,-20.92633 -93.07596,31.06174 -94.52837,55.99638 1.90404,71.48725 55.74042,72.1807 67.73484,72.19558 z"
       id="path1548"
       sodipodi:nodetypes="cccccccccc" />
    <path
       style="fill:none;stroke:#ff0000;stroke-width:0.9375px;stroke-linecap:butt;stroke-linejoin:miter;stroke-opacity:1"
       d="M 708.44619,943.64568 V 676.32617 c 0.59732,-3.63654 0.0891,-8.11844 4.21493,-9.05674 6.5988,-0.58404 5.01055,7.90886 7.10449,12.31934 4.39133,28.71195 23.25255,53.62088 43.5366,76.78411 20.14774,22.65902 36.79023,46.08919 41.42434,72.1612 3.29288,18.30453 0.65467,35.01222 -4.1355,51.14054 -6.63748,20.08063 -15.24153,37.35189 -24.03059,54.35883 -1.4102,-3.8324 -2.35129,-8.22186 1.1601,-17.89864 7.11898,-17.84372 15.6872,-34.58326 16.57282,-57.17621 1.94707,-20.49099 -3.39396,-40.60501 -19.55593,-60.15932 -8.65973,-12.7117 -18.34883,-21.35182 -31.81979,-28.83669 -7.71443,-4.42283 -16.79952,-4.7337 -25.35642,-6.62913 v 198.37659 c 0.71593,19.71722 -8.35684,32.73691 -19.39019,44.41515 -12.26624,10.5996 -27.34491,18.0007 -47.56398,19.5559 -13.94496,-0.4123 -24.87239,-1.7083 -34.80291,-14.957 0.74366,0.5984 -7.72745,-5.5677 -1.98874,-31.81976 4.54855,-10.99383 11.50164,-21.61439 25.68787,-30.12108 7.36234,-5.41055 15.88126,-9.19109 27.2765,-11.76671 16.57974,-4.71296 29.68559,-0.15524 41.6664,6.62913 z"
       id="path1582"
       sodipodi:nodetypes="ccccccccccccccccccccc" />
    <path
       style="fill:none;stroke:#ff0000;stroke-width:0.9375px;stroke-linecap:butt;stroke-linejoin:miter;stroke-opacity:1"
       d="m 142.36048,748.9151 c 14.19028,25.90153 32.08522,49.64487 52.86728,72.09176 24.04272,23.82965 49.20671,43.98205 74.49481,52.86727 17.67146,8.98196 33.72253,10.83805 50.29849,11.93243 26.29786,2.86584 27.7662,-0.91443 41.59776,-1.32583 -14.06616,2.34967 -27.62427,4.97029 -43.91795,6.13195 -18.50312,2.21015 -38.46728,-0.83944 -58.50205,-4.14321 -16.75333,-3.05518 -33.13056,-8.4923 -49.22126,-15.74417 -16.91629,-8.29958 -33.77052,-16.81635 -49.38698,-29.66534 -17.49027,-11.31738 -30.68058,-26.71972 -43.85581,-42.13638 -4.50014,29.78787 -1.47195,32.36883 -1.55183,41.98282 1.43155,16.70748 5.44671,23.92276 6.65958,29.0885 7.73484,17.20954 14.65719,23.58597 21.76844,32.48104 19.75574,14.5714 35.37951,21.98074 48.51563,25.07813 22.95497,5.46991 44.4165,6.83288 65.625,7.5 33.70253,0.58107 60.11759,-3.84798 86.96297,-7.9812 23.62007,-4.21961 45.32272,-10.1436 64.96543,-17.89864 15.33929,-4.72205 31.63184,-12.11324 48.06116,-19.88738 21.68953,-10.49158 44.0614,-23.7125 67.62273,-41.69127 -17.32483,-1.13181 -34.93897,-2.6815 -55.03417,-7.81495 -16.74442,-3.39511 -34.08991,-12.19979 -51.44531,-21.09375 -22.00545,-12.39755 -44.61347,-29.01301 -67.5,-47.57812 l -35.27344,-27.42188 c -14.13378,-9.49741 -28.66637,-17.93133 -44.12109,-23.90625 -7.48087,-2.37957 -14.98209,-4.59642 -22.61719,-5.74218 -6.73367,-0.99725 -12.18947,-2.31396 -26.54297,-1.40625 -5.99076,0.29723 -11.11844,0.33553 -18.51562,1.05468 -11.1336,1.93939 -14.83403,3.55198 -21.21094,6.09375 -7.9561,3.18791 -14.68766,7.17178 -21.09375,11.36719 -8.17976,5.70508 -13.71001,11.76342 -19.64892,17.76728 z"
       id="path1584"
       sodipodi:nodetypes="cccccccccccccccccccccccccccccc" />
  </g>
  <g
     inkscape:groupmode="layer"
     id="layer2"
     inkscape:label="Drawing"
     style="display:inline" />
</svg>
