<?xml version="1.0" encoding="UTF-8" standalone="no"?>
<svg
   xmlns:dc="http://purl.org/dc/elements/1.1/"
   xmlns:cc="http://creativecommons.org/ns#"
   xmlns:rdf="http://www.w3.org/1999/02/22-rdf-syntax-ns#"
   xmlns:svg="http://www.w3.org/2000/svg"
   xmlns="http://www.w3.org/2000/svg"
   xmlns:sodipodi="http://sodipodi.sourceforge.net/DTD/sodipodi-0.dtd"
   xmlns:inkscape="http://www.inkscape.org/namespaces/inkscape"
   sodipodi:docname="drawing.svg"
   id="svg8"
   version="1.1"
   viewBox="0 0 210 297"
   height="297mm"
   width="210mm"
   inkscape:version="1.0.2-2 (e86c870879, 2021-01-15)">
  <defs
     id="defs2" />
  <sodipodi:namedview
     id="base"
     pagecolor="#ffffff"
     bordercolor="#666666"
     borderopacity="1.0"
     inkscape:pageopacity="0.0"
     inkscape:pageshadow="2"
     inkscape:zoom="0.98994949"
     inkscape:cx="499.39736"
     inkscape:cy="471.52095"
     inkscape:document-units="mm"
     inkscape:current-layer="layer1"
     inkscape:document-rotation="0"
     showgrid="false"
     inkscape:window-width="1920"
     inkscape:window-height="991"
     inkscape:window-x="-9"
     inkscape:window-y="-9"
     inkscape:window-maximized="1"
     showguides="true"
     inkscape:guide-bbox="true">
    <sodipodi:guide
       position="32.523361,219.17445"
       orientation="0,1"
       id="guide3460"
       inkscape:label=""
       inkscape:locked="false"
       inkscape:color="rgb(0,0,255)" />
    <sodipodi:guide
       position="45.342857,163.6875"
       orientation="0,-1"
       id="guide3462" />
    <sodipodi:guide
       position="46.136719,212.61682"
       orientation="0,-1"
       id="guide3468" />
    <sodipodi:guide
       position="51.248931,180.33686"
       orientation="0,-1"
       id="guide4303" />
    <sodipodi:guide
       position="183.81462,206.52927"
       orientation="1,0"
       id="guide4309" />
  </sodipodi:namedview>
  <metadata
     id="metadata5">
    <rdf:RDF>
      <cc:Work
         rdf:about="">
        <dc:format>image/svg+xml</dc:format>
        <dc:type
           rdf:resource="http://purl.org/dc/dcmitype/StillImage" />
        <dc:title />
      </cc:Work>
    </rdf:RDF>
  </metadata>
  <g
     inkscape:label="Layer 1"
     inkscape:groupmode="layer"
     id="layer1">
    <g
       id="panel5147"
       transform="translate(18.142857,23.8125)">
      <path
         style="fill:none;stroke:#000000;stroke-width:1"
         d="m 46.3,120.7 h 10.81 v -3.1 h 8.1 v 3.1 h 10.76 v -3.1 h 8.1 v 3.1 h 10.76 v -3.1 h 8.1 v 3.1 h 10.76 v -3.1 h 8.1 v 3.1 h 10.81"
         id="path3288" />
      <path
         style="fill:none;stroke:#000000;stroke-width:1"
         d="m 132.6,120.7 v 11.1 h -3.1 v 7.9 h 3.1 v 11.1"
         id="path3290" />
      <path
         style="fill:none;stroke:#000000;stroke-width:1"
         d="m 132.6,150.8 h -10.81 v 0 h -8.1 v 0 h -10.76 v 0 h -8.1 v 0 H 84.07 v 0 h -8.1 v 0 H 65.21 v 0 h -8.1 v 0 H 46.3"
         id="path3292" />
      <path
         style="fill:none;stroke:#000000;stroke-width:1"
         d="m 46.3,150.8 v -11.1 h 3.1 v -7.9 h -3.1 v -11.1"
         id="path3294" />
    </g>
    <g
       id="panel2045"
       transform="translate(18.142857,23.8125)">
      <path
         style="fill:none;stroke:#000000;stroke-width:1"
         d="m 8.1,49.4 h 11 v -3.1 h 8.1 v 3.1 h 11"
         id="path3297" />
      <path
         style="fill:none;stroke:#000000;stroke-width:1"
         d="m 38.2,49.4 v 7.425 h 3.1 v 8.1 H 38.2 V 75.4 h 3.1 v 8.1 h -3.1 v 10.475 h 3.1 v 8.1 h -3.1 v 7.425"
         id="path3299" />
      <path
         style="fill:none;stroke:#000000;stroke-width:1"
         d="m 38.2,109.5 h -11 v 3.1 h -8.1 v -3.1 h -11"
         id="path3301" />
      <path
         style="fill:none;stroke:#000000;stroke-width:1"
         d="m 8.1,109.5 v -7.425 0 -8.1 0 -10.475 0 -8.1 0 -10.475 0 -8.1 0 -7.425"
         id="path3303" />
    </g>
    <g
       id="panel1154"
       transform="translate(18.142857,23.8125)">
      <path
         style="fill:none;stroke:#000000;stroke-width:1"
         d="m 46.3,46.3 h 10.91 v 3.1 h 7.9 v -3.1 h 10.96 v 3.1 h 7.9 v -3.1 h 10.96 v 3.1 h 7.9 v -3.1 h 10.96 v 3.1 h 7.9 v -3.1 h 10.91"
         id="path3306" />
      <path
         style="fill:none;stroke:#000000;stroke-width:1"
         d="m 132.6,46.3 v 10.625 h -3.1 v 7.9 h 3.1 V 75.5 h -3.1 v 7.9 h 3.1 v 10.675 h -3.1 v 7.9 h 3.1 V 112.6"
         id="path3308" />
      <path
         style="fill:none;stroke:#000000;stroke-width:1"
         d="m 132.6,112.6 h -10.91 v -3.1 h -7.9 v 3.1 h -10.96 v -3.1 h -7.9 v 3.1 H 83.97 v -3.1 h -7.9 v 3.1 H 65.11 v -3.1 h -7.9 v 3.1 H 46.3"
         id="path3310" />
      <path
         style="fill:none;stroke:#000000;stroke-width:1"
         d="m 46.3,112.6 v -10.625 h 3.1 v -7.9 H 46.3 V 83.4 h 3.1 V 75.5 H 46.3 V 64.825 h 3.1 v -7.9 H 46.3 V 46.3"
         id="path3312" />
    </g>
    <g
       id="panel7297"
       transform="translate(18.142857,23.8125)">
      <path
         style="fill:none;stroke:#000000;stroke-width:1"
         d="m 140.7,49.4 h 11 v -3.1 h 8.1 v 3.1 h 11"
         id="path3315" />
      <path
         style="fill:none;stroke:#000000;stroke-width:1"
         d="m 170.8,49.4 v 7.425 0 8.1 0 10.475 0 8.1 0 10.475 0 8.1 0 7.425"
         id="path3317" />
      <path
         style="fill:none;stroke:#000000;stroke-width:1"
         d="m 170.8,109.5 h -11 v 3.1 h -8.1 v -3.1 h -11"
         id="path3319" />
      <path
         style="fill:none;stroke:#000000;stroke-width:1"
         d="m 140.7,109.5 v -7.425 h -3.1 v -8.1 h 3.1 V 83.5 h -3.1 v -8.1 h 3.1 V 64.925 h -3.1 v -8.1 h 3.1 V 49.4"
         id="path3321" />
    </g>
    <g
       id="panel3953"
       transform="translate(18.142857,23.8125)">
      <path
         style="fill:none;stroke:#000000;stroke-width:1"
         d="m 46.3,8.1 h 10.81 v 0 h 8.1 v 0 h 10.76 v 0 h 8.1 v 0 h 10.76 v 0 h 8.1 v 0 h 10.76 v 0 h 8.1 v 0 h 10.81"
         id="path3324" />
      <path
         style="fill:none;stroke:#000000;stroke-width:1"
         d="m 132.6,8.1 v 11.1 h -3.1 v 7.9 h 3.1 v 11.1"
         id="path3326" />
      <path
         style="fill:none;stroke:#000000;stroke-width:1"
         d="m 132.6,38.2 h -10.81 v 3.1 h -8.1 v -3.1 h -10.76 v 3.1 h -8.1 V 38.2 H 84.07 v 3.1 h -8.1 V 38.2 H 65.21 v 3.1 h -8.1 V 38.2 H 46.3"
         id="path3328" />
      <path
         style="fill:none;stroke:#000000;stroke-width:1"
         d="M 46.3,38.2 V 27.1 h 3.1 V 19.2 H 46.3 V 8.1"
         id="path3330" />
    </g>
    <g
       id="panel9763"
       transform="translate(18.142857,23.8125)">
      <path
         style="fill:none;stroke:#000000;stroke-width:1"
         d="m 46.3,120.7 h 10.81 v -3.1 h 8.1 v 3.1 h 10.76 v -3.1 h 8.1 v 3.1 h 10.76 v -3.1 h 8.1 v 3.1 h 10.76 v -3.1 h 8.1 v 3.1 h 10.81"
         id="path3388" />
      <path
         style="fill:none;stroke:#000000;stroke-width:1"
         d="m 132.6,120.7 v 11.1 h -3.1 v 7.9 h 3.1 v 11.1"
         id="path3390" />
      <path
         style="fill:none;stroke:#000000;stroke-width:1"
         d="m 132.6,150.8 h -10.81 v 0 h -8.1 v 0 h -10.76 v 0 h -8.1 v 0 H 84.07 v 0 h -8.1 v 0 H 65.21 v 0 h -8.1 v 0 H 46.3"
         id="path3392" />
      <path
         style="fill:none;stroke:#000000;stroke-width:1"
         d="m 46.3,150.8 v -11.1 h 3.1 v -7.9 h -3.1 v -11.1"
         id="path3394" />
    </g>
    <g
       id="panel1589"
       transform="translate(18.142857,23.8125)">
      <path
         style="fill:none;stroke:#000000;stroke-width:1"
         d="m 140.7,49.4 h 11 v -3.1 h 8.1 v 3.1 h 11"
         id="path3415" />
      <path
         style="fill:none;stroke:#000000;stroke-width:1"
         d="m 170.8,49.4 v 7.425 0 8.1 0 10.475 0 8.1 0 10.475 0 8.1 0 7.425"
         id="path3417" />
      <path
         style="fill:none;stroke:#000000;stroke-width:1"
         d="m 170.8,109.5 h -11 v 3.1 h -8.1 v -3.1 h -11"
         id="path3419" />
      <path
         style="fill:none;stroke:#000000;stroke-width:1"
         d="m 140.7,109.5 v -7.425 h -3.1 v -8.1 h 3.1 V 83.5 h -3.1 v -8.1 h 3.1 V 64.925 h -3.1 v -8.1 h 3.1 V 49.4"
         id="path3421" />
    </g>
    <g
       id="panel4917"
       transform="translate(18.142857,23.8125)">
      <path
         style="fill:none;stroke:#000000;stroke-width:1"
         d="m 46.3,8.1 h 10.81 v 0 h 8.1 v 0 h 10.76 v 0 h 8.1 v 0 h 10.76 v 0 h 8.1 v 0 h 10.76 v 0 h 8.1 v 0 h 10.81"
         id="path3424" />
      <path
         style="fill:none;stroke:#000000;stroke-width:1"
         d="m 132.6,8.1 v 11.1 h -3.1 v 7.9 h 3.1 v 11.1"
         id="path3426" />
      <path
         style="fill:none;stroke:#000000;stroke-width:1"
         d="m 132.6,38.2 h -10.81 v 3.1 h -8.1 v -3.1 h -10.76 v 3.1 h -8.1 V 38.2 H 84.07 v 3.1 h -8.1 V 38.2 H 65.21 v 3.1 h -8.1 V 38.2 H 46.3"
         id="path3428" />
      <path
         style="fill:none;stroke:#000000;stroke-width:1"
         d="M 46.3,38.2 V 27.1 h 3.1 V 19.2 H 46.3 V 8.1"
         id="path3430" />
    </g>
    <rect
       style="fill:none;fill-rule:evenodd;stroke:#000000;stroke-width:0.312535;stroke-opacity:1"
       id="rect3476"
       width="13"
       height="14"
       x="38.248932"
       y="84.383179" />
    <rect
       style="fill:none;stroke:#000000;stroke-width:0.264583;stroke-opacity:1"
       id="rect4301"
       width="11"
       height="11"
       x="40.248932"
       y="116.66314" />
    <rect
       style="fill:none;stroke:#000000;stroke-width:0.169608;stroke-miterlimit:4;stroke-dasharray:none;stroke-opacity:1"
       id="rect4307"
       width="3.1503925"
       height="50.830391"
       x="180.8813"
       y="77.847305" />
    <rect
       style="fill:none;stroke:#000000;stroke-width:0.169607;stroke-miterlimit:4;stroke-dasharray:none;stroke-opacity:1"
       id="rect4311"
       width="3.1503925"
       height="50.830395"
       x="31.273462"
       y="77.828484" />
    <path
       id="rect4320"
       style="fill:none;stroke:#000000;stroke-width:1.00157;stroke-miterlimit:4;stroke-dasharray:none;stroke-opacity:1"
       d="m 590.43359,699.53125 v 15.61133 H 250.83351 l -2.33598,-2 -3.82565,2 v 23.71484 h 295.24218 v 42.90235 H 244.67188 v 57.79687 h 295.24218 v 42.93164 H 244.67188 v 20.63477 l 3.84375,2 2.33259,-2 h 339.58537 v 15.61133 h 27.27539 V 699.53125 Z"
       transform="scale(0.26458333)"
       sodipodi:nodetypes="ccccccccccccccccccccc" />
    <g
       id="g938"
       transform="matrix(0.04972511,0,0,0.04972511,114.96379,21.764472)"
       style="fill:none;stroke:#0000ff;stroke-opacity:1">
      <path
         style="fill:none;fill-opacity:1;stroke:#0000ff;stroke-width:0.352778;stroke-opacity:1"
         d="m 604.03553,387.23959 c -2.87151,-0.38531 -6.81317,-1.51338 -8.76205,-2.50762 -0.74924,-0.38224 -2.05209,-1.33085 -2.89524,-2.10803 -4.0729,-3.75427 -6.0059,-9.27479 -6.96089,-19.87988 l -0.44474,-4.93889 -4.42495,-0.23144 c -7.55077,-0.39492 -11.80247,-1.91568 -15.09808,-5.4003 -3.24562,-3.43177 -4.93714,-8.134 -5.65178,-15.71131 -1.3239,-14.03741 -1.69506,-33.79562 -0.78859,-41.98056 1.28108,-11.56764 2.77788,-17.94234 4.85114,-20.66053 2.18388,-2.86322 6.53368,-4.24757 14.50484,-4.61627 l 5.02133,-0.23226 0.14979,-1.092 c 0.0824,-0.6006 0.40871,-3.632 0.72518,-6.73644 0.9214,-9.03864 2.65254,-15.61455 5.18529,-19.69681 0.74233,-1.19648 1.94202,-3.27517 2.66598,-4.61932 1.8253,-3.38895 4.52032,-6.1899 7.42007,-7.71172 2.84643,-1.49383 6.43538,-2.87253 8.38326,-3.22043 0.77611,-0.13862 2.36445,-0.54199 3.52965,-0.89638 1.1652,-0.35439 4.49895,-0.84718 7.40833,-1.09511 6.34889,-0.54101 20.46339,-0.56598 22.92869,-0.0406 5.90693,1.25892 11.47343,2.77327 13.55713,3.68819 3.97287,1.74443 6.91571,4.04518 9.69873,7.5826 2.98069,3.78868 5.55879,8.53778 6.20684,11.43359 0.4104,1.83384 0.48073,1.91387 2.78821,3.17253 7.03316,3.83637 12.18996,10.05337 14.02727,16.91118 0.95062,3.54823 0.79619,8.95044 -0.35707,12.49135 -1.06038,3.25572 -2.91706,6.49303 -5.2257,9.11154 l -1.60953,1.82557 0.63294,3.17079 c 1.33376,6.68164 1.78135,10.83621 1.97967,18.37522 0.23441,8.91119 -0.12785,13.86614 -1.68036,22.98375 -0.5699,3.34698 -1.5045,8.82691 -2.07687,12.17761 -0.57238,3.35071 -1.29659,9.18477 -1.60937,12.96458 -0.9353,11.30277 -2.50289,16.46866 -6.08413,20.0499 -2.09111,2.09111 -4.53871,3.0826 -8.82095,3.57326 -9.06846,1.03905 -15.10203,-0.27849 -19.25294,-4.20424 -3.54983,-3.35729 -4.76161,-6.76056 -5.03258,-14.13402 -0.0963,-2.61938 -0.24588,-5.23875 -0.33247,-5.82084 l -0.15745,-1.05833 -3.30825,0.11136 -3.30825,0.11136 -0.17847,6.9442 c -0.0982,3.81931 -0.373,7.81732 -0.61076,8.88447 -1.38426,6.21312 -5.80671,10.75958 -12.1762,12.51761 -2.54435,0.70226 -11.17752,1.00096 -14.81667,0.51264 z m 9.96921,-7.3734 c 4.97893,-0.5725 7.78786,-2.31951 9.27038,-5.76571 0.60812,-1.4136 0.82099,-2.84583 1.03463,-6.96088 0.14794,-2.8496 0.19003,-6.00267 0.0935,-7.00683 -0.20192,-2.1015 0.47634,-6.83368 1.17343,-8.18694 0.79884,-1.55075 2.2309,-1.90478 5.78875,-1.43108 4.2795,0.56977 13.26788,0.51187 17.29645,-0.11143 3.36638,-0.52084 6.40201,-1.35533 8.96166,-2.46355 l 1.37693,-0.59615 -1.49375,1.69699 c -2.53973,2.88529 -6.62731,5.59315 -10.89794,7.21946 l -0.81837,0.31164 0.20473,5.43886 c 0.31819,8.45319 0.91801,10.4775 3.63654,12.27294 2.7294,1.80262 5.57551,2.23425 11.51453,1.74627 4.70796,-0.38682 5.50008,-0.74705 6.81511,-3.09922 1.44584,-2.58618 2.38258,-7.72276 3.27303,-17.94761 0.21966,-2.52236 0.95925,-7.76111 1.64354,-11.64167 3.02526,-17.15624 3.02199,-17.12648 3.07524,-28.04583 0.0471,-9.66533 -0.1587,-12.73106 -1.23427,-18.3834 l -0.37662,-1.97922 -3.05059,1.34181 c -6.32701,2.78295 -14.2276,4.4805 -22.27699,4.7865 -11.69171,0.44447 -20.70722,-2.59783 -27.33862,-9.22547 -3.25457,-3.25272 -5.11307,-6.23031 -6.38549,-10.2305 -2.91398,-9.16087 -1.16964,-21.05845 4.0481,-27.61079 3.88402,-4.87747 8.51721,-6.61239 21.9149,-8.2061 6.40803,-0.76227 15.70324,-0.9185 19.35859,-0.32538 1.23688,0.2007 2.32418,0.28959 2.41623,0.19754 0.40102,-0.40102 -1.93691,-3.87908 -3.95144,-5.87843 -4.14404,-4.11282 -9.31183,-6.74845 -16.05949,-8.19055 -2.66518,-0.56959 -4.68769,-0.71863 -9.87778,-0.72789 -6.83928,-0.0122 -18.19446,0.87216 -22.40139,1.74466 -9.34485,1.93809 -15.78456,9.86239 -18.17273,22.36222 -1.42789,7.47368 -2.21219,24.07835 -2.23282,47.27222 -0.0205,23.03671 0.26615,31.20912 1.87457,53.44584 0.92209,12.74808 1.90834,17.37895 4.32318,20.29907 1.74314,2.10789 4.9833,3.36772 9.87803,3.84077 4.19949,0.40586 4.38743,0.40679 7.5962,0.0378 z m -30.01473,-34.32004 c -0.12236,-2.37685 -0.42054,-7.49653 -0.66262,-11.37709 -0.28463,-4.56273 -0.43555,-15.99855 -0.42715,-32.36736 l 0.013,-25.31181 -2.66801,0.002 c -3.1677,0.003 -8.74172,0.78875 -9.867,1.39098 -0.43904,0.23496 -1.0133,0.9419 -1.27614,1.57098 -0.64394,1.54117 -2.17145,10.33533 -2.70208,15.55638 -0.98089,9.65137 -0.27853,33.17745 1.31651,44.09723 1.16605,7.98293 4.3913,10.72348 12.64916,10.7482 l 3.84681,0.0115 z m 73.66775,-52.8262 c 8.12034,-1.71129 13.9225,-4.42037 18.39431,-8.58844 3.48467,-3.24798 5.11176,-6.42675 5.34411,-10.44054 0.30559,-5.27885 -1.19328,-9.05323 -5.20878,-13.11643 -2.24155,-2.26818 -3.23105,-2.96406 -6.35881,-4.47189 -2.03729,-0.98214 -5.13292,-2.15461 -6.87917,-2.60548 -6.68834,-1.72691 -24.79002,-0.78834 -32.02872,1.66068 -4.92377,1.66583 -7.49716,4.72206 -8.95735,10.63802 -0.90381,3.66178 -0.8335,9.85172 0.14767,13.00173 2.36197,7.58293 9.63459,13.11538 19.25369,14.64669 3.18582,0.50717 12.39132,0.0979 16.29305,-0.72434 z"
         id="path944" />
      <path
         style="fill:none;fill-opacity:1;stroke:#0000ff;stroke-width:0.352778;stroke-opacity:1"
         d="m 601.28909,386.57745 c -10.68811,-2.31597 -14.33295,-7.98426 -15.89251,-24.71533 l -0.41105,-4.40972 -5.11527,-0.22825 c -7.28802,-0.32521 -10.84491,-1.57481 -14.29072,-5.02062 -2.94195,-2.94195 -5.01044,-8.28303 -5.61816,-14.50669 -1.29614,-13.27392 -1.7619,-34.43071 -0.93195,-42.33334 0.58401,-5.56081 1.74051,-13.24053 2.34122,-15.54679 2.06117,-7.9134 5.36428,-9.83572 18.32322,-10.66362 l 3.88055,-0.24792 0.0848,-1.23472 c 0.90287,-13.14899 3.04599,-22.12665 6.50384,-27.24507 0.75111,-1.1118 1.47197,-2.30242 1.60192,-2.64583 0.59711,-1.57787 3.42752,-5.46369 4.77791,-6.55947 2.74587,-2.22817 6.70976,-3.94218 12.79694,-5.53349 5.87585,-1.53606 9.7419,-1.88245 21.33045,-1.91118 9.04628,-0.0224 10.70675,0.0582 12.7,0.61701 1.26118,0.35353 3.00743,0.7771 3.88055,0.94125 2.63113,0.49467 5.71714,1.38823 7.58473,2.19618 3.31587,1.43452 7.36456,4.19801 8.81944,6.01984 4.61563,5.7798 6.32536,8.72816 7.43187,12.81597 0.5694,2.10351 0.74579,2.36248 2.06343,3.02951 2.87254,1.45417 6.64362,4.33253 9.04464,6.90351 2.73879,2.93267 4.88998,6.85954 5.84309,10.66621 0.74128,2.96066 0.74452,7.67549 0.007,10.58334 -0.82929,3.2708 -3.03853,7.55415 -5.31587,10.3066 l -1.96017,2.3691 0.50986,2.21701 c 1.52922,6.64933 2.09463,12.62608 2.09533,22.14895 7.1e-4,10.30396 -0.21824,12.46486 -2.60992,25.75278 -1.64536,9.14146 -2.28235,13.78024 -2.97921,21.69584 -0.81791,9.2904 -2.22083,13.76973 -5.3657,17.13185 -3.0643,3.27598 -6.3097,4.23543 -14.36742,4.24748 -3.86754,0.006 -5.50972,-0.1437 -7.34866,-0.66896 -6.1578,-1.75886 -10.0995,-5.99736 -11.22228,-12.06732 -0.23329,-1.26118 -0.52526,-4.59493 -0.64882,-7.40833 l -0.22466,-5.11528 -3.38319,-0.10029 -3.3832,-0.10029 -0.23277,7.15585 c -0.13999,4.30325 -0.44273,8.03748 -0.75944,9.36746 -1.40489,5.89974 -4.78615,9.52009 -11.01175,11.79042 -3.0147,1.09939 -14.04752,1.28161 -18.54832,0.30635 z m 14.63533,-6.76754 c 2.25389,-0.47823 4.76244,-1.70041 5.82097,-2.83601 1.14127,-1.22439 2.17394,-3.78969 2.40219,-5.96744 0.11025,-1.05182 0.33171,-5.51941 0.49214,-9.92798 0.31956,-8.78122 0.43771,-9.26099 2.54984,-10.35321 0.97103,-0.50214 1.37053,-0.51324 3.43626,-0.0955 1.52736,0.30885 4.84396,0.46552 9.56944,0.45205 6.51347,-0.0186 7.62198,-0.11208 11.15801,-0.9412 2.15934,-0.50631 4.58028,-1.25433 5.37986,-1.66224 0.79959,-0.40792 1.45379,-0.5968 1.45379,-0.41973 0,0.17708 -0.95638,1.2074 -2.12529,2.2896 -2.29787,2.12743 -5.87244,4.36454 -8.54623,5.3486 l -1.6757,0.61672 v 4.10646 c 0,5.22792 0.55128,9.63449 1.41779,11.333 0.92584,1.8148 2.85328,3.31901 5.19777,4.05644 1.62306,0.51051 2.81242,0.58422 6.93621,0.42986 5.9882,-0.22415 7.16925,-0.61457 8.44484,-2.79163 1.51944,-2.59325 2.93019,-9.63853 3.25768,-16.26883 0.15017,-3.04026 0.97988,-8.63078 3.46732,-23.36255 1.86944,-11.07168 2.20237,-20.49033 1.08546,-30.7079 -0.5027,-4.59875 -1.14756,-8.27404 -1.45174,-8.27404 -0.0887,0 -0.77597,0.31362 -1.52733,0.69694 -6.26764,3.19751 -16.33197,5.30028 -25.36836,5.30028 -8.07269,0 -13.0314,-1.10788 -19.1692,-4.28282 -2.26283,-1.17051 -3.69977,-2.27853 -6.32567,-4.87768 -2.98131,-2.95094 -3.59268,-3.77385 -4.98845,-6.7145 -2.20083,-4.63681 -2.79116,-7.33257 -2.78107,-12.7 0.0207,-11.01502 4.12415,-19.39221 11.14143,-22.74523 3.12312,-1.4923 5.43129,-2.08133 11.66749,-2.97747 10.28744,-1.47831 17.28389,-1.72457 24.65804,-0.8679 l 2.08026,0.24166 -0.94504,-1.73634 c -3.76607,-6.91953 -12.17786,-11.8131 -22.73955,-13.2288 -6.0819,-0.81522 -24.76093,0.30384 -30.32672,1.81687 -3.80951,1.0356 -5.82509,2.20417 -8.68068,5.0328 -6.2811,6.22178 -8.73961,13.6066 -9.71201,29.17274 -1.49983,24.00935 -1.28035,58.0905 0.53505,83.07917 0.29601,4.07459 0.59806,8.59896 0.67123,10.05417 0.16659,3.31316 1.05661,9.14145 1.75083,11.46528 1.02375,3.42692 3.28107,6.10515 6.07107,7.20311 3.14849,1.23903 12.0202,1.82789 15.71807,1.04329 z M 584.2185,348.81055 c -0.0338,-0.67843 -0.34344,-6.47281 -0.68806,-12.87639 -0.48854,-9.07794 -0.62028,-16.95705 -0.59801,-35.7652 l 0.0286,-24.12233 -3.39746,0.24083 c -4.8163,0.34141 -8.20876,0.8886 -9.12275,1.47146 -1.19323,0.76094 -1.71077,2.06777 -2.50119,6.31569 -2.3446,12.60056 -2.76585,26.97759 -1.31788,44.97917 1.17511,14.60929 2.11431,17.51282 6.33238,19.57653 2.43968,1.19362 4.34008,1.53622 8.15088,1.46941 l 3.175,-0.0557 -0.0615,-1.23351 z m 70.23127,-55.43172 c 12.00913,-1.53765 21.98782,-7.07635 25.59487,-14.20651 1.07386,-2.12273 1.23747,-2.80643 1.36403,-5.70003 0.11509,-2.63145 -0.005,-3.77634 -0.59909,-5.73378 -2.45998,-8.09898 -11.01504,-13.81566 -22.81535,-15.24575 -6.65572,-0.80661 -21.16751,0.53151 -27.14758,2.50327 -6.00669,1.98053 -9.16974,7.26554 -9.59136,16.02581 -0.45124,9.3756 3.64334,16.20968 12.0608,20.13016 5.84949,2.72443 12.10194,3.38325 21.13368,2.22683 z"
         id="path942" />
      <path
         style="fill:none;fill-opacity:1;stroke:#0000ff;stroke-width:0.352778;stroke-opacity:1"
         d="m 604.91748,387.02223 c -5.7568,-0.59203 -10.66189,-2.6461 -13.35469,-5.59245 -3.45659,-3.78206 -4.94781,-8.36566 -5.9357,-18.24474 l -0.5909,-5.90903 h -3.24231 c -12.53691,0 -19.0805,-4.90063 -21.1972,-15.875 -0.84282,-4.36976 -1.88138,-21.96616 -1.88433,-31.92639 -0.003,-9.77488 0.27736,-14.15824 1.41579,-22.14283 0.96025,-6.73501 1.55804,-9.14742 2.88243,-11.63222 2.30888,-4.33191 5.88144,-5.73798 15.78763,-6.21362 l 4.74879,-0.228 0.61582,-6.17361 c 1.04698,-10.49597 2.98521,-17.88786 5.83567,-22.25564 0.73538,-1.12684 1.89268,-3.03722 2.57178,-4.2453 3.4517,-6.14042 7.35353,-8.39201 20.10833,-11.60373 4.20719,-1.05939 24.91616,-1.62601 28.92778,-0.7915 13.94676,2.90126 18.33937,5.01664 23.32066,11.23065 3.10588,3.8745 5.16206,7.61356 6.10746,11.10615 0.60897,2.24973 0.66715,2.324 2.61887,3.34295 5.34192,2.78894 10.11281,7.49874 12.49443,12.33447 1.84724,3.75072 2.20426,5.45485 2.18027,10.40695 -0.0186,3.82994 -0.14282,4.74993 -0.94523,6.99732 -1.15599,3.23768 -2.77187,5.96421 -4.97855,8.40047 l -1.71182,1.8899 0.72731,3.61518 c 1.47538,7.33347 1.93818,12.40624 1.93909,21.25407 10e-4,9.37092 -0.26459,11.91576 -2.632,25.22362 -1.80656,10.15509 -2.30335,13.76746 -2.78966,20.28472 -0.75992,10.18384 -2.47125,15.7393 -5.90668,19.17472 -2.05258,2.05259 -4.44467,3.04354 -8.60656,3.5654 -9.38799,1.17715 -15.89033,-0.37929 -20.07661,-4.80566 -3.19508,-3.37833 -4.0739,-6.36073 -4.49824,-15.26539 l -0.24135,-5.0648 -3.34502,0.0744 c -1.83977,0.0409 -3.42269,0.15203 -3.51761,0.24695 -0.0949,0.0949 -0.272,3.61674 -0.3935,7.82627 -0.23848,8.26152 -0.64674,10.34606 -2.64682,13.51439 -2.26621,3.58992 -6.66441,6.31151 -11.62907,7.19605 -2.5472,0.45383 -9.03844,0.60615 -12.15826,0.28531 z m 8.87127,-6.79648 c 3.90417,-0.41091 6.28312,-1.43332 8.07699,-3.47126 2.30198,-2.61519 2.71749,-5.14307 2.94075,-17.89098 0.10427,-5.95423 0.46239,-7.16143 2.35722,-7.9463 0.8924,-0.36964 1.72472,-0.37948 4.20176,-0.0497 3.84826,0.51236 12.80802,0.53382 16.47718,0.0395 3.09916,-0.41756 7.54505,-1.5652 9.04264,-2.33422 l 0.99141,-0.5091 -0.59396,0.9065 c -0.91353,1.39422 -4.9744,4.30888 -7.91526,5.68111 -1.45521,0.67902 -2.88396,1.36667 -3.175,1.52812 -0.43668,0.24224 -0.51084,1.08823 -0.42432,4.84022 0.21347,9.25694 1.07632,11.98618 4.38728,13.87714 2.69348,1.53832 5.56566,1.93154 10.80695,1.47956 4.8033,-0.41421 5.54044,-0.7121 6.91109,-2.7929 1.52767,-2.31919 2.80854,-8.75932 3.38369,-17.01296 0.16901,-2.42535 0.62428,-6.31472 1.01172,-8.64305 0.38743,-2.32834 1.34516,-8.04334 2.12829,-12.70001 1.62203,-9.64501 2.31934,-18.15408 1.98738,-24.25118 -0.25969,-4.7697 -1.06413,-11.99876 -1.62754,-14.62585 l -0.38655,-1.80245 -2.53553,1.16749 c -9.00595,4.14681 -22.11522,6.04247 -31.74674,4.59071 -13.91524,-2.09746 -23.52544,-10.5794 -25.65518,-22.64322 -0.61297,-3.47215 -0.26668,-10.72341 0.6878,-14.40217 1.48855,-5.7372 4.63807,-10.4458 8.54075,-12.76858 3.77375,-2.24606 8.40663,-3.36604 18.65035,-4.50867 5.48764,-0.61212 15.36701,-0.70099 18.65304,-0.16779 1.23688,0.2007 2.34336,0.27041 2.45885,0.15491 0.42714,-0.42714 -1.60142,-3.58607 -3.82577,-5.95761 -4.20814,-4.48657 -9.35176,-7.18324 -16.60789,-8.70709 -4.66668,-0.98004 -13.35199,-1.05 -23.07962,-0.18591 -10.3059,0.91546 -13.97806,2.02063 -17.93214,5.39682 -5.11847,4.37041 -8.61229,11.59952 -9.94159,20.57031 -1.27864,8.62891 -2.0925,33.54827 -1.80315,55.20973 0.19149,14.33417 0.94613,34.25053 1.47037,38.80556 0.11165,0.97013 0.34807,4.30388 0.52536,7.40833 0.5512,9.65154 1.80493,14.80987 4.28407,17.62632 2.58652,2.93844 4.69135,3.60933 13.6957,4.36533 0.29104,0.0245 1.90186,-0.10005 3.5796,-0.27663 z M 584.3238,347.70393 c -0.83785,-9.0149 -1.29806,-26.08222 -1.24961,-46.3432 0.0287,-12.02973 0.0737,-22.5866 0.0999,-23.45973 l 0.0476,-1.5875 -2.51139,-0.10271 c -2.74208,-0.11215 -9.24143,0.73612 -10.40296,1.35775 -1.04344,0.55843 -1.63632,2.23207 -2.5973,7.33187 -1.51814,8.05665 -1.76975,11.54553 -1.77217,24.57421 -0.003,15.93093 1.09682,30.00447 2.67414,34.22026 1.77314,4.73915 4.93129,6.4609 11.92631,6.50197 l 4.01941,0.0236 z m 73.81729,-54.79973 c 8.19063,-1.75695 13.53451,-4.27788 18.00203,-8.49231 6.26651,-5.91152 7.2759,-13.88209 2.67857,-21.15117 -3.23681,-5.11788 -10.28671,-9.16048 -18.47612,-10.5947 -7.83176,-1.37159 -26.03975,0.32248 -31.33522,2.91542 -5.00724,2.4518 -7.87162,8.45287 -7.85988,16.46697 0.01,6.58755 1.60681,10.67588 5.80158,14.85059 3.55714,3.54014 7.731,5.58865 13.71648,6.73201 3.99305,0.76275 12.10067,0.4255 17.47256,-0.72681 z"
         id="path940" />
    </g>
    <text
       xml:space="preserve"
       style="font-size:5.83184px;line-height:1.25;font-family:Cambria;-inkscape-font-specification:Cambria;fill:none;stroke:#0000ff;stroke-width:0.145796;stroke-opacity:1"
       x="65.836006"
       y="38.489597"
       id="text948"><tspan
         sodipodi:role="line"
         id="tspan946"
         x="65.836006"
         y="38.489597"
         style="fill:none;stroke:#0000ff;stroke-width:0.145796;stroke-opacity:1">Kristján V. Steinarsson</tspan></text>
  </g>
</svg>
